<svg width="64" height="64" viewBox="0 0 64 64" fill="none" xmlns="http://www.w3.org/2000/svg">
<path d="M23 40H21V41H23V40Z" fill="black"></path>
<path d="M25 42H23V43H25V42Z" fill="black"></path>
<path d="M28 44H26V45H28V44Z" fill="black"></path>
<path d="M24.9198 16.607L26.6918 15.429L26.2778 16.878L27.7218 17.29L28.6168 14.149L31.2498 12.399V15.71L29.1458 18.028L30.2578 19.036L31.2498 17.943V20H32.7498V17.943L33.7418 19.036L34.8538 18.028L32.7498 15.71V12.401L35.4918 14.227L36.2688 17.273L37.7218 16.903L37.3558 15.468L39.0748 16.613L39.9068 15.365L38.1878 14.22L39.6518 14.004L39.4338 12.52L36.3228 12.978L33.3538 11L36.3228 9.027L39.4358 9.486L39.6538 8.002L38.1898 7.786L39.9098 6.642L39.0798 5.393L37.3588 6.537L37.7268 5.102L36.2728 4.73L35.4918 7.778L32.7498 9.601V6.29L34.8538 3.972L33.7428 2.964L32.7498 4.058V2H31.2498V4.058L30.2568 2.964L29.1458 3.972L31.2498 6.29V9.599L28.6168 7.846L27.7268 4.708L26.2828 5.117L26.6948 6.566L24.9248 5.387L24.0928 6.635L25.8628 7.814L24.3678 7.993L24.5458 9.482L27.7848 9.094L30.6458 11L27.7858 12.901L24.5448 12.511L24.3648 14L25.8608 14.18L24.0898 15.358L24.9198 16.607Z" fill="black"></path>
<path d="M56 34.765V34.215C56.0287 33.1465 55.843 32.083 55.4539 31.0875C55.0647 30.0919 54.48 29.1844 53.7342 28.4186C52.9885 27.6529 52.0968 27.0443 51.112 26.6289C50.1271 26.2134 49.0689 25.9996 48 26H33V22H31V26H27.4C25.5977 26 23.8135 26.3592 22.1516 27.0566C20.4897 27.7541 18.9835 28.7758 17.721 30.062L17.711 30.028C8.02 32.98 2 38.717 2 45C2 54.374 15.458 62 32 62C48.542 62 62 54.374 62 45C62 41.239 59.915 37.713 56 34.765ZM47.706 44H46.889C44.7084 44.0285 42.5637 44.5598 40.622 45.5526C38.6803 46.5454 36.9939 47.9729 35.694 49.724C34.502 51.2642 32.9224 52.4603 31.1167 53.1901C29.311 53.9198 27.3439 54.1571 25.4165 53.8776C23.4891 53.5982 21.6704 52.812 20.1463 51.5994C18.6223 50.3868 17.4475 48.7913 16.742 46.976C17.0478 47.3712 17.3756 47.7488 17.724 48.107C19.0238 49.4322 20.5926 50.4634 22.3247 51.131C24.0567 51.7986 25.9118 52.0871 27.7648 51.9771C29.6178 51.8671 31.4256 51.3611 33.0665 50.4932C34.7074 49.6253 36.1432 48.4157 37.277 46.946C38.391 45.438 39.8377 44.2072 41.5048 43.3494C43.1719 42.4916 45.0144 42.0298 46.889 42H47.706C48.8552 41.9992 49.9921 41.7633 51.0468 41.3069C52.1015 40.8505 53.0517 40.1832 53.839 39.346C53.4769 40.6917 52.6781 41.879 51.568 42.7213C50.4579 43.5637 49.0995 44.0135 47.706 44V44ZM27.4 28H31V30H27.4C24.9922 29.9587 22.6633 30.8579 20.908 32.5066C19.1527 34.1552 18.1095 36.4234 18 38.829C17.9618 40.7212 18.5217 42.5773 19.5998 44.1328C20.678 45.6883 22.2195 46.864 24.0047 47.4924C25.79 48.1207 27.7281 48.1698 29.5428 47.6325C31.3576 47.0952 32.9566 45.999 34.112 44.5C35.598 42.5065 37.524 40.8828 39.7402 39.7554C41.9563 38.628 44.4027 38.0273 46.889 38H47.707C48.7801 38.0179 49.8201 37.6279 50.6169 36.9089C51.4137 36.1899 51.908 35.1953 52 34.126C52.0169 33.5902 51.9259 33.0565 51.7325 32.5565C51.539 32.0566 51.2471 31.6006 50.8739 31.2158C50.5008 30.8309 50.0541 30.5249 49.5604 30.3161C49.0667 30.1072 48.5361 29.9997 48 30H33V28H48C48.8037 27.9996 49.5994 28.1607 50.3396 28.4738C51.0799 28.7868 51.7498 29.2454 52.3094 29.8223C52.869 30.3991 53.3071 31.0826 53.5975 31.832C53.8879 32.5815 54.0248 33.3816 54 34.185C53.9011 35.7781 53.1916 37.2717 52.0193 38.3548C50.8469 39.438 49.3019 40.0273 47.706 40H46.889C44.7084 40.0285 42.5637 40.5598 40.622 41.5526C38.6803 42.5454 36.9939 43.9729 35.694 45.724C34.2808 47.5544 32.3264 48.8925 30.1089 49.5481C27.8913 50.2037 25.5235 50.1434 23.3422 49.3757C21.1609 48.608 19.2772 47.1721 17.9591 45.2722C16.6409 43.3722 15.9554 41.105 16 38.793C16.1218 35.8641 17.3808 33.0982 19.5095 31.0828C21.6382 29.0675 24.4689 27.9615 27.4 28V28ZM31 34.586L29.707 33.293L28.293 34.707L31.293 37.707C31.4805 37.8945 31.7348 37.9998 32 37.9998C32.2652 37.9998 32.5195 37.8945 32.707 37.707L35.707 34.707L34.293 33.293L33 34.586V32H48C48.2682 31.9999 48.5337 32.0537 48.7807 32.1582C49.0277 32.2628 49.2511 32.4159 49.4377 32.6086C49.6243 32.8012 49.7702 33.0295 49.8668 33.2797C49.9634 33.5299 50.0087 33.7969 50 34.065C49.9259 34.6145 49.6502 35.1169 49.2265 35.4745C48.8027 35.8321 48.2611 36.0194 47.707 36H46.889C44.5279 36.0143 42.193 36.4957 40.0188 37.4164C37.8446 38.3372 35.8742 39.6792 34.221 41.365C33.5378 40.7504 32.7058 40.3251 31.8075 40.1312C30.9092 39.9374 29.9758 39.9818 29.1 40.26C28.4496 39.3322 27.5127 38.6436 26.433 38.3C25.2966 37.9624 24.1944 37.5188 23.141 36.975C22.8551 36.8076 22.5814 36.6201 22.322 36.414C21.9037 36.0797 21.45 35.7923 20.969 35.557C21.6464 34.4628 22.5935 33.561 23.7197 32.9381C24.8458 32.3152 26.1131 31.9922 27.4 32H31V34.586ZM20.2 37.4C20.5252 37.574 20.8335 37.7779 21.121 38.009C21.4551 38.2724 21.8081 38.5111 22.177 38.723C23.3405 39.3286 24.5586 39.8231 25.815 40.2C26.2453 40.3364 26.6418 40.5624 26.9786 40.8629C27.3154 41.1635 27.5847 41.5319 27.769 41.944C27.8253 42.069 27.9068 42.1811 28.0083 42.2733C28.1098 42.3655 28.2292 42.4359 28.359 42.48C28.4891 42.5233 28.6267 42.5398 28.7634 42.5282C28.9001 42.5167 29.033 42.4775 29.154 42.413C29.7443 42.0906 30.42 41.959 31.0881 42.0364C31.7563 42.1137 32.384 42.3962 32.885 42.845C32.766 42.99 32.644 43.132 32.528 43.282C31.6289 44.4473 30.385 45.2992 28.9735 45.7163C27.562 46.1335 26.0549 46.0946 24.6667 45.6053C23.2786 45.116 22.0803 44.2012 21.2423 42.9912C20.4044 41.7811 19.9697 40.3375 20 38.866C20.0109 38.3713 20.078 37.8795 20.2 37.4V37.4ZM32 60C16.561 60 4 53.271 4 45C4 40.2 8.382 35.7 15.6 32.88C14.9054 34.1289 14.4286 35.487 14.19 36.896C9.554 39.163 7 42.03 7 45C7 48.052 9.69 51 14.574 53.292L15.426 51.481C11.342 49.563 9 47.2 9 45C9 43.07 10.8 41.015 14 39.245V42.757C13.9471 45.4895 14.7572 48.1691 16.3151 50.4146C17.8731 52.6601 20.0995 54.3571 22.6776 55.2642C25.2557 56.1713 28.0542 56.2422 30.675 55.4669C33.2957 54.6917 35.6053 53.1097 37.275 50.946C38.3892 49.4377 39.8363 48.2068 41.5037 47.3489C43.1712 46.4911 45.0141 46.0295 46.889 46H47.706C48.9676 46 50.2129 45.7158 51.3496 45.1686C52.4863 44.6214 53.4852 43.8251 54.272 42.839C54.7183 43.4739 54.9712 44.2245 55 45C55 49.556 44.77 54.391 33.948 54.949L34.048 56.949C45.134 56.375 57 51.438 57 45C56.9576 43.5057 56.3872 42.0747 55.39 40.961C55.761 40.0911 55.9678 39.1601 56 38.215V37.34C58.616 39.665 60 42.283 60 45C60 53.271 47.439 60 32 60Z" fill="black"></path>
<path d="M31 43H29V44H31V43Z" fill="black"></path>
<path d="M44.3749 16.607L46.1469 15.429L45.7329 16.878L47.1769 17.29L48.0719 14.149L50.7049 12.399V15.71L48.6009 18.028L49.7119 19.036L50.7049 17.942V20H52.2049V17.942L53.1969 19.036L54.3089 18.028L52.2049 15.71V12.401L54.9469 14.227L55.7239 17.273L57.1769 16.903L56.8109 15.468L58.5299 16.613L59.3619 15.365L57.6429 14.22L59.1069 14.004L58.8889 12.52L55.7779 12.978L52.8089 11L55.7779 9.027L58.8909 9.486L59.1089 8.002L57.6449 7.786L59.3649 6.642L58.5349 5.393L56.8139 6.537L57.1819 5.102L55.7289 4.73L54.9469 7.778L52.2049 9.601V6.29L54.3089 3.972L53.1969 2.964L52.2049 4.058V2H50.7049V4.058L49.7119 2.964L48.6009 3.972L50.7049 6.29V9.599L48.0719 7.846L47.1819 4.708L45.7379 5.117L46.1499 6.566L44.3799 5.387L43.5479 6.635L45.3179 7.814L43.8229 7.993L44.0009 9.482L47.2399 9.094L50.1009 11L47.2409 12.901L43.9999 12.511L43.8199 14L45.3159 14.18L43.5449 15.358L44.3749 16.607Z" fill="black"></path>
<path d="M5.37492 16.607L7.14692 15.429L6.73292 16.878L8.17692 17.29L9.07192 14.149L11.7049 12.399V15.71L9.60092 18.028L10.7119 19.036L11.7049 17.942V20H13.2049V17.942L14.1969 19.036L15.3089 18.028L13.2049 15.71V12.401L15.9469 14.227L16.7239 17.273L18.1769 16.903L17.8109 15.468L19.5299 16.613L20.3619 15.365L18.6429 14.22L20.1069 14.004L19.8889 12.52L16.7779 12.978L13.8089 11L16.7779 9.027L19.8909 9.486L20.1089 8.002L18.6449 7.786L20.3649 6.642L19.5349 5.393L17.8139 6.537L18.1819 5.102L16.7289 4.73L15.9469 7.778L13.2049 9.601V6.29L15.3089 3.972L14.1969 2.964L13.2049 4.058V2H11.7049V4.058L10.7119 2.964L9.60092 3.972L11.7049 6.29V9.599L9.07192 7.846L8.18192 4.708L6.73792 5.117L7.14992 6.566L5.37992 5.387L4.54792 6.635L6.31792 7.814L4.82292 7.993L5.00092 9.482L8.23992 9.094L11.1009 11L8.24092 12.901L4.99992 12.511L4.81992 14L6.31592 14.18L4.54492 15.358L5.37492 16.607Z" fill="black"></path>
</svg>