<svg version="1.1" id="Layer_1" xmlns="http://www.w3.org/2000/svg" xmlns:xlink="http://www.w3.org/1999/xlink" x="0px" y="0px" viewBox="0 0 48 48" style="enable-background:new 0 0 48 48;" xml:space="preserve">
<path d="M46,21h-1.153c0.83-2.471,0.249-5.289-1.654-7.192c-0.391-0.391-1.023-0.391-1.414,0l-0.119,0.119
	c0.015-1.035-0.281-1.962-0.952-2.633c-1.219-1.219-3.238-1.273-5.302-0.289c-0.025-0.684-0.257-1.271-0.698-1.711
	c-1.176-1.177-3.384-0.834-5.481,0.725C28.41,8.145,27.039,7,25.5,7c-1.097,0-2.111,0.577-2.901,1.605C21.898,7.576,20.991,7,20,7
	c-1.644,0-3.013,1.574-3.636,4.008c-0.907-0.785-1.847-1.412-2.718-1.808c-1.95-0.887-2.938-0.323-3.353,0.092
	c-0.509,0.509-0.674,1.235-0.499,2.123c-1.411-0.257-2.66,0.036-3.501,0.877c-0.987,0.986-1.231,2.547-0.699,4.274
	C4.259,17.652,3.336,19.219,3.08,21H2c-0.552,0-1,0.448-1,1c0,8.137,4.372,15.748,11.409,19.863C12.563,41.953,12.737,42,12.914,42
	h22.172c0.177,0,0.352-0.047,0.505-0.137C42.628,37.748,47,30.137,47,22C47,21.448,46.552,21,46,21z M42.413,16.001
	c0.973,1.48,1.089,3.401,0.287,4.999h-5.286L42.413,16.001z M15,17c2.414,0,4.434,1.721,4.899,4h-9.798
	C10.566,18.721,12.586,17,15,17z M19,15c0.817,0,1.518,0.493,1.828,1.196c-0.423,0.13-0.82,0.325-1.177,0.587
	c-0.583-0.52-1.249-0.948-1.981-1.251C18.028,15.207,18.488,15,19,15z M26.272,21C26.097,20.698,26,20.355,26,20
	c0-1.103,0.897-2,2-2c0.439,0,0.844,0.153,1.182,0.404L26.586,21H26.272z M30.61,16.975c-0.418-0.362-0.903-0.632-1.431-0.793
	C29.493,15.487,30.189,15,31,15c0.439,0,0.844,0.153,1.182,0.404L30.61,16.975z M25,17.382c-0.483-0.553-1.11-0.965-1.828-1.187
	C23.482,15.493,24.184,15,25,15s1.518,0.493,1.828,1.195C26.11,16.418,25.483,16.83,25,17.382z M21.92,21
	c-0.14-0.974-0.48-1.881-0.979-2.683C21.256,18.119,21.616,18,22,18c1.103,0,2,0.897,2,2c0,0.355-0.097,0.698-0.272,1H21.92z
	 M34.413,16.001c0.973,1.48,1.09,3.401,0.287,4.999h-5.286L34.413,16.001z M39.293,12.707c0.848,0.848,0.341,3.245-1.743,5.329
	l-0.347,0.347c-0.093-1.681-0.762-3.327-2.01-4.575c-0.075-0.075-0.165-0.123-0.254-0.169
	C36.807,12.225,38.602,12.016,39.293,12.707z M20,9c0.443,0,1.128,0.661,1.584,2.112c0.128,0.409,0.503,0.69,0.931,0.7
	c0.416,0.009,0.815-0.253,0.962-0.655C23.958,9.847,24.752,9,25.5,9c0.925,0,1.86,1.227,2.274,2.982
	c0.083,0.353,0.351,0.633,0.7,0.732s0.724,0.002,0.98-0.255c1.734-1.735,3.469-2.121,3.839-1.753
	c0.201,0.201,0.193,0.999-0.454,2.142c-0.097,0.172-0.125,0.361-0.114,0.546C32.196,13.143,31.612,13,31,13
	c-1.2,0-2.266,0.542-3,1.382C27.266,13.542,26.2,13,25,13s-2.266,0.542-3,1.382C21.266,13.542,20.2,13,19,13
	c-0.331,0-0.65,0.052-0.96,0.128C18.252,10.471,19.331,9,20,9z M7.707,13.707c0.604-0.605,1.979-0.481,3.419,0.309
	c0.398,0.219,0.894,0.142,1.206-0.188c0.313-0.329,0.364-0.828,0.126-1.214c-0.654-1.06-0.743-1.681-0.729-1.89
	c0.462-0.054,2.119,0.539,4.063,2.483c0.157,0.157,0.299,0.316,0.502,0.543c0.055,0.06,0.119,0.107,0.184,0.151
	c-0.38,0.309-0.701,0.689-0.948,1.125C15.355,15.014,15.179,15,15,15c-0.885,0-1.729,0.172-2.509,0.473
	C11.691,15.165,10.856,15,10,15c-0.92,0-1.797,0.183-2.602,0.507C7.246,14.729,7.34,14.074,7.707,13.707z M10.109,17.001
	C9.036,18.051,8.304,19.444,8.08,21H5.104C5.582,18.694,7.675,16.983,10.109,17.001z M34.812,40H13.189
	C7.184,36.384,3.36,29.96,3.024,23h41.952C44.64,29.96,40.816,36.384,34.812,40z"></path>
</svg>