<svg xmlns="http://www.w3.org/2000/svg" viewBox="0 0 64 64"><defs><style>.cls-1{fill:none;stroke:#000;stroke-linecap:round;stroke-linejoin:round;stroke-width:2px;}</style></defs><g id="pasta-boil"><line class="cls-1" x1="53.89" y1="19.38" x2="56.89" y2="22.38"></line><line class="cls-1" x1="56.89" y1="19.38" x2="53.89" y2="22.38"></line><circle cx="58" cy="45" r="1"></circle><path class="cls-1" d="M12,25H48a0,0,0,0,1,0,0V51.64A7.36,7.36,0,0,1,40.64,59H19.36A7.36,7.36,0,0,1,12,51.64V25A0,0,0,0,1,12,25Z"></path><path class="cls-1" d="M44,47.63V51.3A3.7,3.7,0,0,1,40.3,55H37"></path><line class="cls-1" x1="44" y1="29" x2="44" y2="41.63"></line><path class="cls-1" d="M48,30h6.5A2.5,2.5,0,0,1,57,32.5v0A2.5,2.5,0,0,1,54.5,35H48a0,0,0,0,1,0,0V30A0,0,0,0,1,48,30Z"></path><path class="cls-1" d="M3,30H9.5A2.5,2.5,0,0,1,12,32.5v0A2.5,2.5,0,0,1,9.5,35H3a0,0,0,0,1,0,0V30A0,0,0,0,1,3,30Z" transform="translate(15 65) rotate(180)"></path><line class="cls-1" x1="38" y1="24.85" x2="44" y2="8.85"></line><line class="cls-1" x1="41" y1="24.85" x2="49" y2="7.85"></line><polyline class="cls-1" points="16.73 10.88 15.43 8.22 22.61 4.7 23.89 7.32"></polyline><line class="cls-1" x1="44" y1="24.85" x2="52" y2="9.85"></line><line class="cls-1" x1="36" y1="24.85" x2="39" y2="10.85"></line><path class="cls-1" d="M40.94,5.75c-1.45-3-10.68-1.45-20.6,3.4S3.56,20.36,5,23.33Z"></path><line class="cls-1" x1="34" y1="59" x2="53" y2="59"></line><line class="cls-1" x1="57" y1="59" x2="62" y2="59"></line></g></svg>